<svg width="201" height="201" fill="none" xmlns="http://www.w3.org/2000/svg"><path d="M100.5 201c55.505 0 100.5-44.995 100.5-100.5S156.005 0 100.5 0 0 44.995 0 100.5 44.995 201 100.5 201z" fill="#4DC0B5"/><g clip-path="url(#clip0)" fill="#fff"><path opacity=".4" d="M120.467 55.476a2.292 2.292 0 0 1 1.641 1.957c.033.3.006.605-.078.895l-26.02 89.999a2.296 2.296 0 0 1-1.948 1.648c-.3.033-.602.006-.891-.078l-11.628-3.388a2.288 2.288 0 0 1-1.372-1.1 2.3 2.3 0 0 1-.191-1.752l26.02-90a2.294 2.294 0 0 1 1.947-1.647c.3-.033.602-.007.891.078l11.629 3.388z"/><path d="M161.281 99.327L133.81 73.45a2.301 2.301 0 0 0-3.24.096l-8.292 8.889a2.291 2.291 0 0 0-.617 1.678 2.304 2.304 0 0 0 .771 1.614L139.697 101l-17.269 15.255a2.291 2.291 0 0 0-.637 2.517c.107.288.271.552.483.775l8.292 8.882a2.3 2.3 0 0 0 1.596.733 2.283 2.283 0 0 0 1.645-.619l27.471-25.859a2.284 2.284 0 0 0 .733-1.677 2.293 2.293 0 0 0-.73-1.68zm-81.55-16.882l-8.291-8.881a2.287 2.287 0 0 0-1.6-.724 2.278 2.278 0 0 0-1.64.628l-27.472 25.84a2.287 2.287 0 0 0-.538 2.588c.126.289.309.548.538.762L68.2 128.517a2.26 2.26 0 0 0 2.514.431c.274-.126.522-.305.727-.527l8.292-8.881a2.311 2.311 0 0 0 .616-1.679 2.303 2.303 0 0 0-.77-1.614L62.303 101l17.27-15.255a2.28 2.28 0 0 0 .784-1.616 2.29 2.29 0 0 0-.625-1.684z"/></g><defs><clipPath id="clip0"><path fill="#fff" d="M40 52h122v98H40z"/></clipPath></defs></svg>
